<svg t="1782501866882" class="icon" viewBox="0 0 1024 1024" version="1.1" xmlns="http://www.w3.org/2000/svg" p-id="8654" width="200" height="200">
  <path d="M617.376 929.968c-8 17.648-25.152 29.136-44.096 29.136L451.2 960a48.336 48.336 0 0 1-44.16-28.576L370.72 854.4a331.568 331.568 0 0 1-42.992-21.76l-77.776 18.944a47.872 47.872 0 0 1-50.048-17.472L123.84 736.848c-11.68-15.44-14.032-36-5.696-53.2l37.28-76.752a471.776 471.776 0 0 1-9.392-43.792l-63.424-50.368a51.088 51.088 0 0 1-17.376-50.56l26.8-121.328c4.256-19.168 18.72-33.952 37.152-37.632l81.568-18.192a421.488 421.488 0 0 1 26.832-33.856l-1.28-81.92c-0.512-19.2 10.192-36.8 27.552-46.048l109.296-54.048a48.688 48.688 0 0 1 52.64 5.84l65.008 53.28a339.488 339.488 0 0 1 45.824 0.416l61.984-51.92a48.688 48.688 0 0 1 52.56-6.336l109.856 53.664a50.72 50.72 0 0 1 27.952 45.408l-0.416 85.6c9.168 10.528 18.048 22.08 26.048 33.84l78.24 16.432c18.688 3.728 33.552 18.608 37.76 37.584l28.128 120.96c4.208 19.008-2.24 38.48-16.976 50.608l-65.6 53.376c-2.832 16.624-5.6 29.472-9.28 41.728l36.752 72.704c8.448 17.44 6.704 37.984-4.8 53.168l-74.24 98.496c-11.728 15.44-30.928 22.752-49.424 18.512l-81.488-18.16a329.28 329.28 0 0 1-42.976 21.328l-33.312 74.288zM312.32 745.296c4-1.152 8.08-1.728 12.144-1.728a51.52 51.52 0 0 1 28.48 8.4 286.48 286.48 0 0 0 63.488 31.808c12.64 4.4 23.312 14.192 29.6 26.816l33.648 71.28 63.424-0.8 30.528-68.528c6.144-13.44 16.864-23.408 30.128-27.84a284.784 284.784 0 0 0 63.472-31.296 51.2 51.2 0 0 1 39.248-7.296l74.992 17.024 38.88-51.728-34.032-67.232a52 52 0 0 1-2.832-41.68c7.44-21.888 12.32-43.68 14.56-65.616 1.6-13.808 8.368-26.496 18.96-35.488l60.784-49.04-14.848-63.456-72.16-15.248a50.944 50.944 0 0 1-33.584-23.936c-12.4-20.064-26.08-38.016-40.992-53.344a54.336 54.336 0 0 1-14.912-37.184l0.448-78.832-57.536-28-57.12 48.032c-11.264 8.992-25.216 13.28-39.104 11.6a272.48 272.48 0 0 0-69.28-0.48 49.92 49.92 0 0 1-38.224-11.2l-60.16-49.808-57.12 28.8 1.312 75.712a54.08 54.08 0 0 1-15.552 38.24c-15.888 15.904-29.92 33.6-41.76 52.704a53.104 53.104 0 0 1-32.4 23.44L159.68 386.432l-14.048 63.936 58.48 46.304a52.4 52.4 0 0 1 19.472 36.624c2.336 23.44 7.008 46.144 14.08 67.84 4.368 13.328 3.392 27.824-2.72 40.448l-33.712 70.08 39.68 50.944 71.408-17.328h-0.016z m199.408-40.272c-104.4 0-188.96-86.48-188.96-193.12 0-106.592 84.56-193.072 188.96-193.072s188.96 86.48 188.96 193.088c0 106.624-84.56 193.104-188.96 193.104z m0-308.752c-62.24 0-112.848 51.904-112.848 115.648 0 63.76 50.608 115.68 112.848 115.68s112.848-51.92 112.848-115.68c0-63.744-50.624-115.648-112.848-115.648z" fill="#E0E0E0" p-id="8655"/>
</svg>
